<svg fill="#202460" height="200px" width="200px" version="1.1" id="Layer_1" xmlns="http://www.w3.org/2000/svg" xmlns:xlink="http://www.w3.org/1999/xlink" viewBox="0 0 512 512" xml:space="preserve" stroke="#202460"><g id="SVGRepo_bgCarrier" stroke-width="0"></g><g id="SVGRepo_tracerCarrier" stroke-linecap="round" stroke-linejoin="round"></g><g id="SVGRepo_iconCarrier"> <g> <g> <path d="M502.25,0H9.75C4.366,0,0,4.366,0,9.75V502.25c0,5.385,4.366,9.75,9.75,9.75H502.25c5.385,0,9.75-4.366,9.75-9.75V9.75 C512,4.366,507.634,0,502.25,0z M492.499,492.499H19.501V19.501h472.998V492.499z"></path> </g> </g> <g> <g> <path d="M442.772,59.464H69.228c-5.385,0-9.75,4.366-9.75,9.75v288.534c0,5.385,4.366,9.75,9.75,9.75s9.75-4.366,9.75-9.75 v-70.632h43.877v145.905H78.978V386.35c0-5.385-4.366-9.75-9.75-9.75s-9.75,4.366-9.75,9.75v56.422c0,5.385,4.366,9.75,9.75,9.75 h373.544c5.385,0,9.75-4.366,9.75-9.75V69.215C452.523,63.83,448.157,59.464,442.772,59.464z M122.855,267.616H78.978v-23.258 h43.877V267.616z M122.855,224.857H78.978V78.965h43.877V224.857z M165.614,433.022h-23.258V78.965h23.258V433.022z M224.87,433.022h-39.756V287.117h39.756V433.022z M224.87,267.616h-39.756v-23.258h39.756V267.616z M224.87,224.857h-39.756 V78.965h39.756V224.857z M267.629,433.022h-23.258V78.965h23.258V433.022z M326.885,433.022H287.13V287.117h39.756V433.022z M326.885,267.616H287.13v-23.258h39.756V267.616z M326.885,224.857H287.13V78.965h39.756V224.857z M433.022,433.022h-43.877v0 V287.117h43.877V433.022z M433.022,267.616h-43.877v-23.258h43.877V267.616z M433.022,224.857h-43.877V147.14 c0-5.385-4.366-9.75-9.75-9.75c-5.385,0-9.75,4.366-9.75,9.75v285.882h-23.258V78.965h23.258v42.824c0,5.385,4.366,9.75,9.75,9.75 c5.385,0,9.75-4.366,9.75-9.75V78.965h43.877V224.857z"></path> </g> </g> </g></svg>