<svg fill="#ffbb00" height="204px" width="204px" version="1.1" id="Layer_1" xmlns="http://www.w3.org/2000/svg" xmlns:xlink="http://www.w3.org/1999/xlink" viewBox="-46.08 -46.08 604.16 604.16" xml:space="preserve" stroke="#ffbb00" transform="matrix(1, 0, 0, 1, 0, 0)rotate(0)"><g id="SVGRepo_bgCarrier" stroke-width="0"></g><g id="SVGRepo_tracerCarrier" stroke-linecap="round" stroke-linejoin="round" stroke="#CCCCCC" stroke-width="2.0479960000000004"></g><g id="SVGRepo_iconCarrier"> <g> <g> <path d="M412.133,110.806L385.98,6.191C385.073,2.606,381.75,0,378.05,0H133.948c-3.701,0-7.023,2.606-7.929,6.191L99.865,110.806 c-0.634,2.507,0.009,5.314,1.702,7.275l34.873,41.028c2.923,3.438,8.08,3.859,11.521,0.934c3.439-2.924,3.858-8.081,0.934-11.521 l-23.427-27.561h63.806l48.814,132.495l-64.786-76.219c-2.925-3.437-8.079-3.858-11.521-0.934 c-3.439,2.924-3.858,8.082-0.934,11.521l84.887,99.867H168.82c-14.121,0-25.609,11.488-25.609,25.609 c0,14.121,11.488,25.609,25.609,25.609h19.498c-22.315,19.214-35.984,47.464-36.379,77.621 c-0.497,37.959,19.865,73.233,53.138,92.055c6.86,3.882,14.98,4.413,22.275,1.456c7.266-2.945,12.702-8.947,14.915-16.469 c3.388-11.522-1.554-23.655-12.019-29.507c-17.178-9.604-27.555-27.785-27.084-47.449c0.67-28.015,24.018-51.139,52.047-51.547 c9.894-0.133,19.599,2.464,28.024,7.541c3.865,2.33,8.888,1.084,11.219-2.782c2.33-3.866,1.084-8.889-2.782-11.219 c-11.044-6.655-23.751-10.082-36.699-9.884c-17.874,0.26-34.78,7.396-47.602,20.094c-12.824,12.7-20.121,29.535-20.548,47.406 c-0.616,25.741,12.968,49.538,35.449,62.108c3.762,2.103,5.536,6.473,4.314,10.626c-1.66,5.645-8.351,8.29-13.462,5.399 c-28.077-15.883-45.259-45.622-44.841-77.613c0.439-33.665,20.511-64.509,51.136-78.581c3.501-1.61,5.43-5.577,4.535-9.324 c-0.867-3.635-4.21-6.275-7.949-6.275h-47.186c-5.108,0-9.263-4.155-9.263-9.263s4.155-9.263,9.263-9.263h174.358 c5.108,0,9.263,4.155,9.263,9.263s-4.155,9.263-9.263,9.263h-47.186c-3.84,0-7.163,2.674-7.984,6.426 c-0.821,3.752,1.082,7.569,4.571,9.172c31.068,14.276,51.144,45.581,51.144,79.753c0,31.696-17.193,61.033-44.871,76.56 c-5.076,2.851-11.916,0.193-13.438-5.514c-1.204-4.095,0.567-8.541,4.21-10.57c21.943-12.218,35.573-35.391,35.573-60.475 c0-10.373-2.242-20.352-6.663-29.659c-1.935-4.077-6.81-5.814-10.889-3.876c-4.077,1.936-5.813,6.812-3.876,10.889 c3.372,7.1,5.081,14.718,5.081,22.647c0,19.159-10.415,36.858-27.178,46.194c-10.426,5.805-15.336,17.921-11.947,29.441 c0.002,0.008,0.029,0.104,0.032,0.111c2.208,7.508,7.631,13.507,14.879,16.459c7.193,2.929,15.44,2.409,22.213-1.389 c32.826-18.415,53.219-53.214,53.219-90.816c0-30.73-13.685-59.504-36.359-79.006h19.468c14.121,0,25.609-11.488,25.609-25.609 s-11.488-25.609-25.609-25.609h-76.915l144.168-169.61c0.237-0.277,0.45-0.578,0.647-0.886 C412.282,115.325,412.679,112.965,412.133,110.806z M118.262,104.615l18.745-74.978l43.737,74.978H118.262z M186.8,82.557 l-38.622-66.21H186.8V82.557z M325.197,16.346L325.197,16.346h38.623l-38.623,66.21V16.346z M308.851,16.346v66.21l-38.623-66.21 H308.851z M302.794,104.615h-93.591l46.796-80.221L302.794,104.615z M203.146,16.346h38.623l-38.623,66.21V16.346z M255.999,254.787l-49.304-133.825h98.608L255.999,254.787z M273.909,253.456l48.814-132.495h63.807L273.909,253.456z M331.254,104.615l43.737-74.978l18.745,74.978H331.254z"></path> </g> </g> </g></svg>