<svg fill="#2547d0" width="100px" height="100px" viewBox="0 0 1024.00 1024.00" xmlns="http://www.w3.org/2000/svg" stroke="#2547d0" stroke-width="48.128"><g id="SVGRepo_bgCarrier" stroke-width="0"></g><g id="SVGRepo_tracerCarrier" stroke-linecap="round" stroke-linejoin="round"></g><g id="SVGRepo_iconCarrier"><path d="M829.44 911.36c45.245 0 81.92-36.675 81.92-81.92V194.56c0-45.245-36.675-81.92-81.92-81.92H194.56c-45.245 0-81.92 36.675-81.92 81.92v634.88c0 45.245 36.675 81.92 81.92 81.92h634.88zm0 40.96H194.56c-67.866 0-122.88-55.014-122.88-122.88V194.56c0-67.866 55.014-122.88 122.88-122.88h634.88c67.866 0 122.88 55.014 122.88 122.88v634.88c0 67.866-55.014 122.88-122.88 122.88z"></path><path d="M644.198 499.834c20.45 27.877 31.638 61.466 31.638 96.809 0 90.485-73.355 163.84-163.84 163.84s-163.84-73.355-163.84-163.84c0-33.656 10.147-65.738 28.825-92.849l-33.73-23.239c-23.35 33.892-36.055 74.064-36.055 116.088 0 113.107 91.693 204.8 204.8 204.8s204.8-91.693 204.8-204.8c0-44.132-14.01-86.191-39.571-121.036l-33.027 24.227z"></path><path d="M663.357 532.484c5.627 9.812 18.142 13.205 27.954 7.578s13.205-18.142 7.578-27.954L545.053 243.84c-16.279-28.375-49.819-28.375-66.097-.004L325.108 512.107c-5.627 9.812-2.234 22.327 7.578 27.954s22.327 2.234 27.954-7.578l151.363-263.938 151.353 263.938z"></path></g></svg>